<?xml version="1.0" encoding="UTF-8" standalone="no"?>
<svg
   xmlns:dc="http://purl.org/dc/elements/1.1/"
   xmlns:cc="http://creativecommons.org/ns#"
   xmlns:rdf="http://www.w3.org/1999/02/22-rdf-syntax-ns#"
   xmlns:svg="http://www.w3.org/2000/svg"
   xmlns="http://www.w3.org/2000/svg"
   xmlns:sodipodi="http://sodipodi.sourceforge.net/DTD/sodipodi-0.dtd"
   xmlns:inkscape="http://www.inkscape.org/namespaces/inkscape"
   version="1.1"
   x="0px"
   y="0px"
   viewBox="0 0 255 255"
   xml:space="preserve"
   id="svg2"
   inkscape:version="0.48.5 r10040"
   width="100%"
   height="100%"
   sodipodi:docname="noun_356800_cc.svg"
   inkscape:export-filename="/Applications/MAMP/htdocs/WT2/WebTop/images/weather.png"
   inkscape:export-xdpi="90"
   inkscape:export-ydpi="90"><metadata
     id="metadata28"><rdf:RDF><cc:Work
         rdf:about=""><dc:format>image/svg+xml</dc:format><dc:type
           rdf:resource="http://purl.org/dc/dcmitype/StillImage" /><dc:title></dc:title></cc:Work></rdf:RDF></metadata><defs
     id="defs26" /><sodipodi:namedview
     pagecolor="#ffffff"
     bordercolor="#666666"
     borderopacity="1"
     objecttolerance="10"
     gridtolerance="10"
     guidetolerance="10"
     inkscape:pageopacity="0"
     inkscape:pageshadow="2"
     inkscape:window-width="1269"
     inkscape:window-height="833"
     id="namedview24"
     showgrid="false"
     inkscape:zoom="2.1741715"
     inkscape:cx="79.857521"
     inkscape:cy="126.84079"
     inkscape:window-x="0"
     inkscape:window-y="0"
     inkscape:window-maximized="0"
     inkscape:current-layer="g4" /><g
     id="g4"
     transform="translate(0,130)"><path
       style="fill:#ff7043;fill-opacity:1"
       d="M 127.04084,-129.24464 C 56.914296,-129.24464 0,-72.330341 0,-2.2037973 0,67.922754 56.914296,124.83705 127.04084,124.83705 c 70.12654,0 127.04084,-56.914296 127.04084,-127.0408473 0,-70.1265437 -56.9143,-127.0408427 -127.04084,-127.0408427 z m 24.93176,61.456009 c 2.7949,0 4.76404,2.064414 4.76404,4.605231 l 0,9.925065 c 0,2.794899 -2.22322,4.843432 -4.76404,4.843432 -2.54081,0 -4.85931,-2.318495 -4.60523,-4.60523 l 0,-9.925066 c -0.25408,-2.794898 2.06442,-4.843432 4.60523,-4.843432 z m 38.35046,15.244901 c 1.20689,0 2.36613,0.381122 3.25542,1.270408 1.77857,1.778572 1.77857,4.891073 0,6.669644 l -6.82845,7.066647 c -0.76224,1.016327 -2.06441,1.50861 -3.33482,1.50861 -1.01632,0 -2.23909,-0.238201 -3.25542,-1.50861 -1.77857,-1.778572 -1.77857,-4.811672 0,-6.590243 l 6.82845,-7.146048 c 0.88928,-0.889286 2.12793,-1.270408 3.33482,-1.270408 z m -79.55933,0.476403 c 1.20689,0 2.44554,0.460523 3.33482,1.349809 l 6.82845,7.066647 c 1.77857,1.778571 1.77857,4.891072 0,6.669644 -1.01633,0.762245 -1.98501,1.270408 -3.25542,1.270408 -1.27041,0 -2.3185,-0.571684 -3.33482,-1.58801 l -6.82845,-6.828445 c -1.77857,-1.778572 -1.77857,-4.811672 0,-6.590244 0.88929,-0.889286 2.04853,-1.349809 3.25542,-1.349809 z m 41.76468,11.354275 c 5.91931,0.178645 11.71952,2.048534 16.67411,5.478636 6.60612,4.573471 10.94139,11.655997 12.46588,19.532529 2.03265,11.6877577 -3.04898,23.6613568 -12.70408,30.013399 0.76224,2.286735 1.0322,4.60523 1.0322,7.146047 0,13.974492 -11.44955,25.090566 -25.16996,25.090566 l -65.823038,0 c -14.228574,0 -25.169966,-10.353829 -25.169966,-23.820158 0,-10.163267 6.11384,-18.8020438 15.006699,-22.8673507 l 0,-2.0644136 c 0,-11.4336757 9.432782,-20.8664577 21.12054,-21.1205397 4.319388,-0.254082 7.62245,1.032207 10.163265,2.302615 5.5898,-7.62245 14.72086,-12.465882 24.37596,-12.465882 2.28674,0 4.54171,0.285842 6.82845,0.794005 4.31939,-4.065307 9.6551,-6.606124 15.2449,-7.62245 1.96913,-0.317602 3.98194,-0.456555 5.95504,-0.397003 z m -0.2382,9.448663 c -1.35775,-0.0278 -2.73138,0.06352 -4.12883,0.317602 -2.54082,0.508163 -4.87519,1.270408 -6.90785,2.540816 7.87654,5.335716 13.25989,14.514416 13.25989,24.9317653 l 0,2.0644136 c 3.81123,1.52449008 7.30485,4.3193886 9.84567,7.6224504 6.09796,-4.8275519 9.46454,-12.4658824 7.94005,-20.0883323 -1.01633,-5.589797 -4.08119,-10.195028 -8.65466,-13.49809 -3.4301,-2.477296 -7.28103,-3.807256 -11.35427,-3.890625 z m 41.60587,19.929531 9.84567,0 c 2.54081,0 4.58935,1.9850134 4.84343,4.5258302 0.25408,2.7948985 -1.98501,4.843432 -4.52583,4.843432 l -9.92507,0 c -2.7949,0 -4.84343,-1.9850131 -4.84343,-4.5258299 -0.25408,-2.7948985 2.06441,-4.8434323 4.60523,-4.8434323 z m -14.29209,29.139993 c 1.20689,0 2.44553,0.460523 3.33482,1.349809 l 6.82844,7.384249 c 1.77858,1.778571 1.77858,4.811671 0,6.590243 -1.01632,0.762245 -1.98501,1.270409 -3.25542,1.270409 -1.27041,0 -2.31849,-0.492284 -3.33482,-1.50861 l -6.82844,-7.146048 c -1.77858,-1.778571 -1.77858,-4.811671 0,-6.590243 0.88928,-0.889286 2.04853,-1.349809 3.25542,-1.349809 z"
       id="path6"
       inkscape:connector-curvature="0"
       sodipodi:nodetypes="sssssssssccsssccscccsscccsssssssccsssscsccsccssccscccsssscsscsscccsccss" /></g></svg>