<?xml version="1.0" encoding="UTF-8" standalone="no"?>
<svg
   xmlns:dc="http://purl.org/dc/elements/1.1/"
   xmlns:cc="http://creativecommons.org/ns#"
   xmlns:rdf="http://www.w3.org/1999/02/22-rdf-syntax-ns#"
   xmlns:svg="http://www.w3.org/2000/svg"
   xmlns="http://www.w3.org/2000/svg"
   xmlns:sodipodi="http://sodipodi.sourceforge.net/DTD/sodipodi-0.dtd"
   xmlns:inkscape="http://www.inkscape.org/namespaces/inkscape"
   version="1.1"
   x="0px"
   y="0px"
   viewBox="0 0 512 512"
   enable-background="new 0 0 100 100"
   xml:space="preserve"
   id="svg2"
   inkscape:version="0.48.5 r10040"
   width="100%"
   height="100%"
   sodipodi:docname="noun_158802_cc.svg"
   inkscape:export-filename="/Users/ori/Downloads/rotate_anticlockwise.png"
   inkscape:export-xdpi="90"
   inkscape:export-ydpi="90"><metadata
     id="metadata14"><rdf:RDF><cc:Work
         rdf:about=""><dc:format>image/svg+xml</dc:format><dc:type
           rdf:resource="http://purl.org/dc/dcmitype/StillImage" /><dc:title></dc:title></cc:Work></rdf:RDF></metadata><defs
     id="defs12" /><sodipodi:namedview
     pagecolor="#ffffff"
     bordercolor="#666666"
     borderopacity="1"
     objecttolerance="10"
     gridtolerance="10"
     guidetolerance="10"
     inkscape:pageopacity="0"
     inkscape:pageshadow="2"
     inkscape:window-width="902"
     inkscape:window-height="671"
     id="namedview10"
     showgrid="false"
     inkscape:zoom="0.6675088"
     inkscape:cx="254.59437"
     inkscape:cy="203.53505"
     inkscape:window-x="0"
     inkscape:window-y="0"
     inkscape:window-maximized="0"
     inkscape:current-layer="svg2" /><path
     d="M 148.81941,298.50167 170.40406,509.54404 3.5018924,378.66118 33.499271,362.13877 C 19.468692,330.41282 12.105444,296.36902 12.105444,262.97063 12.099831,126.11636 123.46896,14.769675 260.3569,14.769675 c 136.89357,0 248.24586,111.346685 248.24586,248.200955 0,37.27083 -8.62599,73.7784 -25.65912,108.50128 l -5.99386,12.23467 -79.22227,-43.73051 5.11835,-10.99437 c 9.88876,-21.20862 14.9061,-43.42183 14.9061,-66.00546 0,-86.75388 -70.61311,-157.33892 -157.39506,-157.33892 -86.78193,0 -157.38381,70.58504 -157.38381,157.33892 0,18.6719 3.48519,37.15297 10.39385,55.1009 l 35.45247,-19.57547 z"
     id="path4"
     inkscape:connector-curvature="0"
     style="fill:#000000" /></svg>