<?xml version="1.0" encoding="UTF-8" standalone="no"?>
<svg
   xmlns:dc="http://purl.org/dc/elements/1.1/"
   xmlns:cc="http://creativecommons.org/ns#"
   xmlns:rdf="http://www.w3.org/1999/02/22-rdf-syntax-ns#"
   xmlns:svg="http://www.w3.org/2000/svg"
   xmlns="http://www.w3.org/2000/svg"
   xmlns:sodipodi="http://sodipodi.sourceforge.net/DTD/sodipodi-0.dtd"
   xmlns:inkscape="http://www.inkscape.org/namespaces/inkscape"
   version="1.1"
   x="0px"
   y="0px"
   viewBox="0 0 512 512"
   enable-background="new 0 0 32 32"
   xml:space="preserve"
   id="svg2"
   inkscape:version="0.48.5 r10040"
   width="100%"
   height="100%"
   sodipodi:docname="noun_361860_cc.svg"
   inkscape:export-filename="/Users/ori/Downloads/noun_361860_cc.png"
   inkscape:export-xdpi="90"
   inkscape:export-ydpi="90"><metadata
     id="metadata48"><rdf:RDF><cc:Work
         rdf:about=""><dc:format>image/svg+xml</dc:format><dc:type
           rdf:resource="http://purl.org/dc/dcmitype/StillImage" /><dc:title></dc:title></cc:Work></rdf:RDF></metadata><defs
     id="defs46" /><sodipodi:namedview
     pagecolor="#ffffff"
     bordercolor="#666666"
     borderopacity="1"
     objecttolerance="10"
     gridtolerance="10"
     guidetolerance="10"
     inkscape:pageopacity="0"
     inkscape:pageshadow="2"
     inkscape:window-width="1247"
     inkscape:window-height="722"
     id="namedview44"
     showgrid="false"
     inkscape:zoom="0.7375"
     inkscape:cx="128.17331"
     inkscape:cy="173.40622"
     inkscape:window-x="0"
     inkscape:window-y="0"
     inkscape:window-maximized="0"
     inkscape:current-layer="svg2" /><g
     display="none"
     id="g4"
     style="display:none"
     transform="translate(0,472)"><rect
       x="-176.362"
       y="-168.964"
       display="inline"
       width="430.246"
       height="214.987"
       id="rect6"
       style="fill:#000000;display:inline" /></g><g
     display="none"
     id="g8"
     style="display:none"
     transform="translate(0,472)"><circle
       display="inline"
       stroke-miterlimit="10"
       cx="16"
       cy="16"
       r="15"
       id="circle10"
       sodipodi:cx="16"
       sodipodi:cy="16"
       sodipodi:rx="15"
       sodipodi:ry="15"
       style="fill:#000000;stroke:#333333;stroke-width:2;stroke-miterlimit:10;display:inline"
       d="M 31,16 C 31,24.284271 24.284271,31 16,31 7.7157288,31 1,24.284271 1,16 1,7.7157288 7.7157288,1 16,1 24.284271,1 31,7.7157288 31,16 z" /><line
       display="inline"
       stroke-miterlimit="10"
       x1="7.5"
       y1="16"
       x2="24.5"
       y2="16"
       id="line12"
       style="fill:#000000;stroke:#3b97d3;stroke-width:2;stroke-miterlimit:10;display:inline" /><line
       display="inline"
       stroke-miterlimit="10"
       x1="16"
       y1="24.5"
       x2="16"
       y2="7.5"
       id="line14"
       style="fill:#000000;stroke:#3b97d3;stroke-width:2;stroke-miterlimit:10;display:inline" /></g><g
     display="none"
     id="g16"
     style="display:none"
     transform="translate(0,472)"><circle
       display="inline"
       stroke-miterlimit="10"
       cx="16"
       cy="16"
       r="15"
       id="circle18"
       sodipodi:cx="16"
       sodipodi:cy="16"
       sodipodi:rx="15"
       sodipodi:ry="15"
       style="fill:none;stroke:#000000;stroke-width:2;stroke-miterlimit:10;display:inline"
       d="M 31,16 C 31,24.284271 24.284271,31 16,31 7.7157288,31 1,24.284271 1,16 1,7.7157288 7.7157288,1 16,1 24.284271,1 31,7.7157288 31,16 z" /><g
       display="inline"
       id="g20"
       style="display:inline"><path
         d="m 11.747,19.771 c 0.579,0.3 1.907,0.857 3.235,0.857 1.692,0 2.55,-0.814 2.55,-1.864 0,-1.371 -1.371,-1.992 -2.807,-1.992 h -1.328 v -2.335 h 1.264 c 1.093,-0.021 2.485,-0.429 2.485,-1.606 0,-0.836 -0.686,-1.457 -2.057,-1.457 -1.136,0 -2.335,0.492 -2.913,0.835 L 11.512,9.853 c 0.835,-0.535 2.506,-1.05 4.306,-1.05 2.978,0 4.627,1.564 4.627,3.471 0,1.479 -0.835,2.635 -2.549,3.235 v 0.043 c 1.671,0.3 3.021,1.563 3.021,3.385 0,2.464 -2.164,4.263 -5.699,4.263 -1.799,0 -3.32,-0.471 -4.135,-0.985 l 0.664,-2.444 z"
         id="path22"
         inkscape:connector-curvature="0" /></g></g><g
     display="none"
     id="g24"
     style="display:none"
     transform="translate(0,472)"><g
       display="inline"
       id="g26"
       style="display:inline"><g
         id="g28"><g
           id="g30"><polygon
             points="9.357,19.753 16,8.247 22.643,19.753 "
             id="polygon32" /></g></g><circle
         stroke-miterlimit="10"
         cx="16"
         cy="16"
         r="15"
         id="circle34"
         sodipodi:cx="16"
         sodipodi:cy="16"
         sodipodi:rx="15"
         sodipodi:ry="15"
         style="fill:none;stroke:#000000;stroke-width:2;stroke-miterlimit:10"
         d="M 31,16 C 31,24.284271 24.284271,31 16,31 7.7157288,31 1,24.284271 1,16 1,7.7157288 7.7157288,1 16,1 24.284271,1 31,7.7157288 31,16 z" /></g></g><g
     id="g36"
     style="fill:#ff7043;fill-opacity:1"
     transform="matrix(15.576271,0,0,15.576271,0,5.5593228)"><path
       d="M 16,0 C 7.163,0 0,7.163 0,16 0,24.837 7.163,32 16,32 24.837,32 32,24.837 32,16 32,7.163 24.837,0 16,0 z M 9.357,19.753 16,8.247 22.643,19.753 H 9.357 z"
       id="path38"
       style="fill:#ff7043;fill-opacity:1"
       inkscape:connector-curvature="0" /></g></svg>