<?xml version="1.0" encoding="UTF-8" standalone="no"?>
<svg
   xmlns:dc="http://purl.org/dc/elements/1.1/"
   xmlns:cc="http://creativecommons.org/ns#"
   xmlns:rdf="http://www.w3.org/1999/02/22-rdf-syntax-ns#"
   xmlns:svg="http://www.w3.org/2000/svg"
   xmlns="http://www.w3.org/2000/svg"
   xmlns:sodipodi="http://sodipodi.sourceforge.net/DTD/sodipodi-0.dtd"
   xmlns:inkscape="http://www.inkscape.org/namespaces/inkscape"
   version="1.1"
   x="0px"
   y="0px"
   viewBox="0 0 512 512"
   enable-background="new 0 0 100 100"
   xml:space="preserve"
   id="svg2"
   inkscape:version="0.48.5 r10040"
   width="100%"
   height="100%"
   sodipodi:docname="noun_189851_cc.svg"
   inkscape:export-filename="/Users/ori/Downloads/greyscale.png"
   inkscape:export-xdpi="90"
   inkscape:export-ydpi="90"><metadata
     id="metadata14"><rdf:RDF><cc:Work
         rdf:about=""><dc:format>image/svg+xml</dc:format><dc:type
           rdf:resource="http://purl.org/dc/dcmitype/StillImage" /><dc:title></dc:title></cc:Work></rdf:RDF></metadata><defs
     id="defs12" /><sodipodi:namedview
     pagecolor="#ffffff"
     bordercolor="#666666"
     borderopacity="1"
     objecttolerance="10"
     gridtolerance="10"
     guidetolerance="10"
     inkscape:pageopacity="0"
     inkscape:pageshadow="2"
     inkscape:window-width="946"
     inkscape:window-height="667"
     id="namedview10"
     showgrid="false"
     inkscape:zoom="0.472"
     inkscape:cx="134.74576"
     inkscape:cy="231.99153"
     inkscape:window-x="0"
     inkscape:window-y="0"
     inkscape:window-maximized="0"
     inkscape:current-layer="svg2" /><path
     d="M 64.756358,2.9322064 V 66.163139 H 1.5254237 V 2.9322064 H 64.756358 z M 444.14195,129.39407 v 63.23092 h 63.23093 V 382.3178 H 380.91102 v -63.23094 h 63.23093 v -63.23093 h -63.23093 v 63.23093 h -63.23093 v 63.23094 h -63.23094 v -63.23094 h -63.23092 v 63.23094 h -63.23094 v 63.23092 H 64.756358 V 382.3178 H 1.5254237 V 129.39407 H 64.756358 v 63.23092 H 191.21823 V 129.39407 H 64.756358 V 66.163139 H 127.98729 V 2.9322064 h 63.23094 V 66.163139 h 63.23092 V 2.9322064 h 189.6928 V 66.163139 h 63.23093 V 129.39407 H 444.14195 z M 127.98729,255.85593 H 64.756358 v 63.23093 H 127.98729 V 255.85593 z M 380.91102,66.163139 H 317.68009 V 192.62499 h -63.23094 v 63.23094 h 63.23094 v -63.23094 h 63.23093 V 66.163139 z M 191.21823,445.54872 h -63.23094 v 63.23094 h 63.23094 63.23092 V 445.54872 382.3178 h -63.23092 v 63.23092 z m 126.46186,0 v 63.23094 h 63.23093 V 445.54872 382.3178 h -63.23093 v 63.23092 z M 1.5254237,508.77966 H 64.756358 V 445.54872 H 1.5254237 v 63.23094 z m 442.6165263,0 h 63.23093 v -63.23094 h -63.23093 v 63.23094 z"
     id="path4"
     inkscape:connector-curvature="0" /></svg>