<svg xmlns="http://www.w3.org/2000/svg" xmlns:xlink="http://www.w3.org/1999/xlink" version="1.1" x="0px" y="0px" viewBox="0 0 100 125" style="enable-background:new 0 0 100 100;" xml:space="preserve"><g><path d="M50,0C22.4,0,0,22.4,0,50c0,27.6,22.4,50,50,50c27.6,0,50-22.4,50-50C100,22.4,77.6,0,50,0z M50,96.3   C24.5,96.3,3.7,75.5,3.7,50S24.5,3.7,50,3.7S96.3,24.5,96.3,50S75.5,96.3,50,96.3z"/><path d="M71.5,44.7c-0.6-3.1-2.3-5.9-4.9-7.7c-2.6-1.8-5.8-2.5-8.9-2c-2.2,0.4-4.3,1.4-6,3c-0.9-0.2-1.8-0.3-2.7-0.3   c-3.8,0-7.4,1.9-9.6,4.9c-1-0.5-2.3-1-4-0.9c-4.6,0.1-8.3,3.8-8.3,8.3c0,0.3,0,0.6,0,0.8c-3.5,1.6-5.9,5-5.9,9   c0,5.3,4.3,9.4,9.9,9.4H57c5.4,0,9.9-4.4,9.9-9.9c0-1-0.1-1.9-0.4-2.8C70.3,54,72.3,49.3,71.5,44.7z M57,65.5H31.1   c-3.5,0-6.1-2.5-6.1-5.7c0-2.9,1.9-5.3,4.7-6l2-0.5L31,51.4c-0.2-0.5-0.2-1-0.2-1.5c0-2.5,2.1-4.6,4.6-4.6c0,0,0,0,0.1,0   c2,0,2.9,1.1,2.9,1.1l1.9,2.6l1.3-2.9c1.3-2.9,4.2-4.8,7.4-4.8c4.5,0,8.1,3.6,8.1,8.1c0,0.4-0.1,1.3-0.2,1.8L56.7,53l1.7,0.4   c2.8,0.6,4.8,3.1,4.8,6C63.2,62.8,60.4,65.5,57,65.5z M64.7,53.3c-1-1.3-2.4-2.4-3.9-3c0-0.3,0-0.5,0-0.8c0-4.1-2.1-7.7-5.2-9.8   c0.8-0.5,1.7-0.8,2.7-1c2.2-0.4,4.3,0.1,6.1,1.4c1.8,1.3,3,3.1,3.4,5.3C68.4,48.4,67.1,51.4,64.7,53.3z"/><path d="M59.8,31.8C59.8,31.8,59.8,31.8,59.8,31.8c1,0,1.9-0.8,1.9-1.9l0-3.9c0-1-0.8-1.8-1.9-1.8c0,0,0,0,0,0   c-1,0-1.9,0.8-1.8,1.9l0,3.9C57.9,30.9,58.8,31.8,59.8,31.8z"/><path d="M80.2,46.4C80.2,46.4,80.2,46.4,80.2,46.4l-3.9,0c-1,0-1.9,0.8-1.8,1.9c0,1,0.8,1.8,1.9,1.8c0,0,0,0,0,0l3.9,0   c1,0,1.9-0.8,1.8-1.9C82,47.2,81.2,46.4,80.2,46.4z"/><path d="M72.2,36.7c0.5,0,1-0.2,1.3-0.6l2.7-2.8c0.7-0.7,0.7-1.9,0-2.6c-0.7-0.7-1.9-0.7-2.6,0l-2.7,2.8c-0.7,0.7-0.7,1.9,0,2.6   C71.3,36.6,71.8,36.7,72.2,36.7z"/><path d="M45,36.2c0.4,0.4,0.8,0.6,1.3,0.6c0.5,0,0.9-0.2,1.3-0.5c0.7-0.7,0.7-1.9,0-2.6l-2.7-2.8c-0.7-0.7-1.9-0.7-2.6,0   c-0.7,0.7-0.7,1.9,0,2.6L45,36.2z"/><path d="M72,58.4c-0.7-0.7-1.9-0.7-2.6,0c-0.7,0.7-0.7,1.9,0,2.6l2.7,2.8c0.4,0.4,0.8,0.6,1.3,0.6c0.5,0,0.9-0.2,1.3-0.5   c0.7-0.7,0.7-1.9,0-2.6L72,58.4z"/></g><text x="0" y="115" fill="#000000" font-size="5px" font-weight="bold" font-family="'Helvetica Neue', Helvetica, Arial-Unicode, Arial, Sans-serif">Created by Jonathan Gibson</text><text x="0" y="120" fill="#000000" font-size="5px" font-weight="bold" font-family="'Helvetica Neue', Helvetica, Arial-Unicode, Arial, Sans-serif">from the Noun Project</text></svg>