<svg xmlns="http://www.w3.org/2000/svg" xmlns:xlink="http://www.w3.org/1999/xlink" version="1.1" x="0px" y="0px" viewBox="0 0 100 125" enable-background="new 0 0 100 100" xml:space="preserve"><path fill="#000000" d="M69.108,56.476l-3.846,37.605L95,70.758l-5.344-2.944c2.5-5.652,3.812-11.719,3.812-17.669  c0-24.385-19.845-44.225-44.234-44.225C24.841,5.919,5,25.759,5,50.145c0,6.641,1.537,13.146,4.573,19.333l1.068,2.181l14.115-7.792  l-0.911-1.959c-1.763-3.78-2.656-7.738-2.656-11.761c0-15.458,12.582-28.035,28.045-28.035s28.043,12.577,28.043,28.035  c0,3.327-0.621,6.62-1.852,9.818L69.108,56.476z"/><text x="0" y="115" fill="#000000" font-size="5px" font-weight="bold" font-family="'Helvetica Neue', Helvetica, Arial-Unicode, Arial, Sans-serif">Created by Kris Brauer</text><text x="0" y="120" fill="#000000" font-size="5px" font-weight="bold" font-family="'Helvetica Neue', Helvetica, Arial-Unicode, Arial, Sans-serif">from the Noun Project</text></svg>