<svg xmlns="http://www.w3.org/2000/svg" viewBox="0 10 250 250"><path d="M125.4 11.4C56.7 11.4.8 67.4.8 136c0 68.8 56 124.6 124.6 124.6 68.8 0 124.6-55.8 124.6-124.6 0-68.7-55.8-124.6-124.6-124.6zm-40.8 196c-16.5 0-29-13-29-29 0-16.7 12.5-30 28.7-30s29.2 13 29.2 29.2c0 16-13 29-29.2 29zm62.3-17.6c-6.6 0-12-5-12-11.7 0-28-22.8-50.7-50.7-50.7-6.2 0-11.4-5-11.4-11.7 0-6.5 4.8-11.5 11.3-11.5 41 .6 74 33.5 74 74.4 0 6.2-5 11.2-11.4 11.2zm45.7 0c-6.5 0-11.5-5-11.5-11.7 0-53.4-43.3-96.8-96.6-96.8-6.5 0-11.5-5-11.5-11s5-11.4 11.6-11.4c66 0 119.6 53.3 119.6 119.6 0 6.2-5 11.2-11.5 11.2z" fill="#ff7043"/></svg>