<svg xmlns="http://www.w3.org/2000/svg" xmlns:xlink="http://www.w3.org/1999/xlink" version="1.1" x="0px" y="0px" viewBox="0 0 100 125" enable-background="new 0 0 100 100" xml:space="preserve"><g><path d="M85.21,0H14.791C6.622,0,0,7.019,0,15.292v70.025C0,93.589,6.622,100,14.791,100H85.21c8.168,0,14.79-6.411,14.79-14.683   V15.292C100,7.019,93.378,0,85.21,0z M74.123,72.723l-2.65,2.65L49.375,53.276L27.278,75.373l-2.651-2.65l22.097-22.098   L24.626,28.528l2.651-2.651l22.097,22.097l22.098-22.097l2.65,2.651L52.026,50.625L74.123,72.723z"/></g><text x="0" y="115" fill="#000000" font-size="5px" font-weight="bold" font-family="'Helvetica Neue', Helvetica, Arial-Unicode, Arial, Sans-serif">Created by Vigneswar Raj</text><text x="0" y="120" fill="#000000" font-size="5px" font-weight="bold" font-family="'Helvetica Neue', Helvetica, Arial-Unicode, Arial, Sans-serif">from the Noun Project</text></svg>