<?xml version="1.0" encoding="UTF-8" standalone="no"?>
<svg
   xmlns:dc="http://purl.org/dc/elements/1.1/"
   xmlns:cc="http://creativecommons.org/ns#"
   xmlns:rdf="http://www.w3.org/1999/02/22-rdf-syntax-ns#"
   xmlns:svg="http://www.w3.org/2000/svg"
   xmlns="http://www.w3.org/2000/svg"
   xmlns:sodipodi="http://sodipodi.sourceforge.net/DTD/sodipodi-0.dtd"
   xmlns:inkscape="http://www.inkscape.org/namespaces/inkscape"
   viewBox="0 0 512 512"
   id="svg2"
   version="1.1"
   inkscape:version="0.48.5 r10040"
   width="100%"
   height="100%"
   sodipodi:docname="noun_123599_cc.svg"
   style="fill:#ffffff">
  <metadata
     id="metadata16">
    <rdf:RDF>
      <cc:Work
         rdf:about="">
        <dc:format>image/svg+xml</dc:format>
        <dc:type
           rdf:resource="http://purl.org/dc/dcmitype/StillImage" />
      </cc:Work>
    </rdf:RDF>
  </metadata>
  <defs
     id="defs14" />
  <sodipodi:namedview
     pagecolor="#ffffff"
     bordercolor="#666666"
     borderopacity="1"
     objecttolerance="10"
     gridtolerance="10"
     guidetolerance="10"
     inkscape:pageopacity="0"
     inkscape:pageshadow="2"
     inkscape:window-width="1440"
     inkscape:window-height="851"
     id="namedview12"
     showgrid="false"
     inkscape:zoom="0.98333333"
     inkscape:cx="257.8983"
     inkscape:cy="294.40678"
     inkscape:window-x="0"
     inkscape:window-y="1"
     inkscape:window-maximized="1"
     inkscape:current-layer="svg2" />
  <path
     d="M 246.71186,500 C 111.02034,500 0,388.97966 0,253.28814 0,117.59661 111.02034,6.5762717 246.71186,6.5762717 382.40339,6.5762717 493.42373,117.59661 493.42373,253.28814 493.42373,388.97966 382.40339,500 246.71186,500 z m 0,-472.864406 c -123.35593,0 -226.152538,102.796606 -226.152538,226.152546 0,123.35593 102.796608,226.15254 226.152538,226.15254 123.35594,0 226.15255,-102.79661 226.15255,-226.15254 0,-123.35594 -102.79661,-226.152546 -226.15255,-226.152546 z"
     id="path4"
     inkscape:connector-curvature="0" />
  <path
     d="m 246.71186,382.81186 c -71.95762,0 -129.52372,-57.5661 -129.52372,-129.52372 0,-71.95763 57.5661,-129.52373 129.52372,-129.52373 71.95763,0 129.52373,57.5661 129.52373,129.52373 0,71.95762 -57.5661,129.52372 -129.52373,129.52372 z m 0,-238.48813 c -61.67796,0 -108.9644,48.31441 -108.9644,108.96441 0,61.67796 48.3144,108.9644 108.9644,108.9644 61.67797,0 108.96441,-48.3144 108.96441,-108.9644 0,-61.67797 -48.31441,-108.96441 -108.96441,-108.96441 z"
     id="path6"
     inkscape:connector-curvature="0" />
  <circle
     cx="39.400002"
     cy="6"
     r="4.4000001"
     id="circle8"
     sodipodi:cx="39.400002"
     sodipodi:cy="6"
     sodipodi:rx="4.4000001"
     sodipodi:ry="4.4000001"
     transform="matrix(10.279661,0,0,10.279661,0,6.5762717)" />
  <circle
     cx="17.1"
     cy="33.099998"
     r="3"
     id="circle10"
     sodipodi:cx="17.1"
     sodipodi:cy="33.099998"
     sodipodi:rx="3"
     sodipodi:ry="3"
     transform="matrix(10.279661,0,0,10.279661,0,6.5762717)" />
</svg>
