<svg xmlns="http://www.w3.org/2000/svg" xmlns:xlink="http://www.w3.org/1999/xlink" version="1.1" x="0px" y="0px" viewBox="0 0 100 125" enable-background="new 0 0 100 100" xml:space="preserve"><path fill="none" d="M30,27.6v-0.3C30,27.5,30,27.6,30,27.6z"/><path d="M50,5C25.1,5,5,25.1,5,50c0,24.9,20.1,45,45,45s45-20.1,45-45C95,25.1,74.9,5,50,5z M73.5,78.7h-1.3v0h-7.4H62H35.3  c-4.7,0-8.6-3.8-8.8-8.5l0,0v-7.9v-0.3v-1V28.2v-0.3v-0.8h0.1c0.2-1.9,1.4-5.8,6.6-5.8h31.6v41h-3.3H36.1c-4.6,0-8.4,3.4-8.4,7.5  c0,4.2,3.7,7.5,8.4,7.5H62h2.9h7.4V36.2h1.3V78.7z M64.8,68.9v2.5h-29c-0.7,0-1.3-0.6-1.3-1.3c0-0.7,0.6-1.3,1.3-1.3H64.8z"/><text x="0" y="115" fill="#000000" font-size="5px" font-weight="bold" font-family="'Helvetica Neue', Helvetica, Arial-Unicode, Arial, Sans-serif">Created by Nimal Raj</text><text x="0" y="120" fill="#000000" font-size="5px" font-weight="bold" font-family="'Helvetica Neue', Helvetica, Arial-Unicode, Arial, Sans-serif">from the Noun Project</text></svg>