<?xml version="1.0" encoding="UTF-8" standalone="no"?>
<svg
   xmlns:dc="http://purl.org/dc/elements/1.1/"
   xmlns:cc="http://creativecommons.org/ns#"
   xmlns:rdf="http://www.w3.org/1999/02/22-rdf-syntax-ns#"
   xmlns:svg="http://www.w3.org/2000/svg"
   xmlns="http://www.w3.org/2000/svg"
   xmlns:sodipodi="http://sodipodi.sourceforge.net/DTD/sodipodi-0.dtd"
   xmlns:inkscape="http://www.inkscape.org/namespaces/inkscape"
   version="1.1"
   x="0px"
   y="0px"
   viewBox="0 0 512 512"
   enable-background="new 0 0 32 32"
   xml:space="preserve"
   id="svg2"
   inkscape:version="0.48.5 r10040"
   width="100%"
   height="100%"
   sodipodi:docname="noun_361863_cc.svg"
   inkscape:export-filename="/Users/ori/Downloads/noun_361863_cc.png"
   inkscape:export-xdpi="90"
   inkscape:export-ydpi="90"><metadata
     id="metadata62"><rdf:RDF><cc:Work
         rdf:about=""><dc:format>image/svg+xml</dc:format><dc:type
           rdf:resource="http://purl.org/dc/dcmitype/StillImage" /><dc:title></dc:title></cc:Work></rdf:RDF></metadata><defs
     id="defs60" /><sodipodi:namedview
     pagecolor="#ffffff"
     bordercolor="#666666"
     borderopacity="1"
     objecttolerance="10"
     gridtolerance="10"
     guidetolerance="10"
     inkscape:pageopacity="0"
     inkscape:pageshadow="2"
     inkscape:window-width="941"
     inkscape:window-height="699"
     id="namedview58"
     showgrid="false"
     inkscape:zoom="0.7375"
     inkscape:cx="181.41688"
     inkscape:cy="288.46088"
     inkscape:window-x="0"
     inkscape:window-y="0"
     inkscape:window-maximized="0"
     inkscape:current-layer="svg2" /><g
     display="none"
     id="g4"
     style="display:none"
     transform="translate(0,472)"><rect
       x="-20.357"
       y="-12.964"
       display="inline"
       width="430.246"
       height="214.987"
       id="rect6"
       style="fill:#000000;display:inline" /></g><g
     display="none"
     id="g8"
     style="display:none"
     transform="translate(0,472)"><circle
       display="inline"
       stroke-miterlimit="10"
       cx="16"
       cy="16"
       r="15"
       id="circle10"
       sodipodi:cx="16"
       sodipodi:cy="16"
       sodipodi:rx="15"
       sodipodi:ry="15"
       style="fill:#000000;stroke:#333333;stroke-width:2;stroke-miterlimit:10;display:inline"
       d="M 31,16 C 31,24.284271 24.284271,31 16,31 7.7157288,31 1,24.284271 1,16 1,7.7157288 7.7157288,1 16,1 24.284271,1 31,7.7157288 31,16 z" /><g
       display="inline"
       id="g12"
       style="display:inline"><polyline
         points="11.222,12.364 9.459,12.364 11.533,19.197 22.225,19.197 24.299,12.364 13.18,12.364   "
         id="polyline14"
         style="fill:#000000" /><circle
         cx="12.813"
         cy="22.322001"
         r="1.993"
         id="circle16"
         sodipodi:cx="12.813"
         sodipodi:cy="22.322001"
         sodipodi:rx="1.993"
         sodipodi:ry="1.993"
         style="fill:#000000"
         d="m 14.806,22.322001 c 0,1.100703 -0.892297,1.993 -1.993,1.993 -1.100704,0 -1.993,-0.892297 -1.993,-1.993 0,-1.100704 0.892296,-1.993001 1.993,-1.993001 1.100703,0 1.993,0.892297 1.993,1.993001 z" /><circle
         cx="20.945"
         cy="22.322001"
         r="1.993"
         id="circle18"
         sodipodi:cx="20.945"
         sodipodi:cy="22.322001"
         sodipodi:rx="1.993"
         sodipodi:ry="1.993"
         style="fill:#000000"
         d="m 22.938,22.322001 c 0,1.100703 -0.892297,1.993 -1.993,1.993 -1.100704,0 -1.993,-0.892297 -1.993,-1.993 0,-1.100704 0.892296,-1.993001 1.993,-1.993001 1.100703,0 1.993,0.892297 1.993,1.993001 z" /><polyline
         stroke-miterlimit="10"
         points="13.096,14.262 11.437,8.685 8.544,8.685       "
         id="polyline20"
         style="fill:#000000;stroke:#3b97d3;stroke-width:2;stroke-miterlimit:10" /></g></g><g
     display="none"
     id="g22"
     style="display:none"
     transform="translate(0,472)"><circle
       display="inline"
       stroke-miterlimit="10"
       cx="16"
       cy="16"
       r="15"
       id="circle24"
       sodipodi:cx="16"
       sodipodi:cy="16"
       sodipodi:rx="15"
       sodipodi:ry="15"
       style="fill:none;stroke:#000000;stroke-width:2;stroke-miterlimit:10;display:inline"
       d="M 31,16 C 31,24.284271 24.284271,31 16,31 7.7157288,31 1,24.284271 1,16 1,7.7157288 7.7157288,1 16,1 24.284271,1 31,7.7157288 31,16 z" /><g
       display="inline"
       id="g26"
       style="display:inline"><polyline
         points="11.222,12.364 9.459,12.364 11.533,19.197 22.225,19.197 24.299,12.364 13.18,12.364   "
         id="polyline28" /><circle
         cx="12.813"
         cy="22.322001"
         r="1.993"
         id="circle30"
         sodipodi:cx="12.813"
         sodipodi:cy="22.322001"
         sodipodi:rx="1.993"
         sodipodi:ry="1.993"
         d="m 14.806,22.322001 c 0,1.100703 -0.892297,1.993 -1.993,1.993 -1.100704,0 -1.993,-0.892297 -1.993,-1.993 0,-1.100704 0.892296,-1.993001 1.993,-1.993001 1.100703,0 1.993,0.892297 1.993,1.993001 z" /><circle
         cx="20.945"
         cy="22.322001"
         r="1.993"
         id="circle32"
         sodipodi:cx="20.945"
         sodipodi:cy="22.322001"
         sodipodi:rx="1.993"
         sodipodi:ry="1.993"
         d="m 22.938,22.322001 c 0,1.100703 -0.892297,1.993 -1.993,1.993 -1.100704,0 -1.993,-0.892297 -1.993,-1.993 0,-1.100704 0.892296,-1.993001 1.993,-1.993001 1.100703,0 1.993,0.892297 1.993,1.993001 z" /><polyline
         stroke-miterlimit="10"
         points="13.096,14.262 11.437,8.685 8.544,8.685       "
         id="polyline34"
         style="fill:none;stroke:#000000;stroke-width:2;stroke-miterlimit:10" /></g></g><g
     display="none"
     id="g36"
     style="display:none"
     transform="translate(0,472)"><circle
       display="inline"
       stroke-miterlimit="10"
       cx="16"
       cy="16"
       r="15"
       id="circle38"
       sodipodi:cx="16"
       sodipodi:cy="16"
       sodipodi:rx="15"
       sodipodi:ry="15"
       style="fill:none;stroke:#000000;stroke-width:2;stroke-miterlimit:10;display:inline"
       d="M 31,16 C 31,24.284271 24.284271,31 16,31 7.7157288,31 1,24.284271 1,16 1,7.7157288 7.7157288,1 16,1 24.284271,1 31,7.7157288 31,16 z" /><g
       display="inline"
       id="g40"
       style="display:inline"><polyline
         points="11.222,12.364 9.459,12.364 11.533,19.197 22.225,19.197 24.299,12.364 13.18,12.364   "
         id="polyline42" /><circle
         cx="12.813"
         cy="22.322001"
         r="1.993"
         id="circle44"
         sodipodi:cx="12.813"
         sodipodi:cy="22.322001"
         sodipodi:rx="1.993"
         sodipodi:ry="1.993"
         d="m 14.806,22.322001 c 0,1.100703 -0.892297,1.993 -1.993,1.993 -1.100704,0 -1.993,-0.892297 -1.993,-1.993 0,-1.100704 0.892296,-1.993001 1.993,-1.993001 1.100703,0 1.993,0.892297 1.993,1.993001 z" /><circle
         cx="20.945"
         cy="22.322001"
         r="1.993"
         id="circle46"
         sodipodi:cx="20.945"
         sodipodi:cy="22.322001"
         sodipodi:rx="1.993"
         sodipodi:ry="1.993"
         d="m 22.938,22.322001 c 0,1.100703 -0.892297,1.993 -1.993,1.993 -1.100704,0 -1.993,-0.892297 -1.993,-1.993 0,-1.100704 0.892296,-1.993001 1.993,-1.993001 1.100703,0 1.993,0.892297 1.993,1.993001 z" /><polyline
         stroke-miterlimit="10"
         points="13.096,14.262 11.437,8.685 8.544,8.685       "
         id="polyline48"
         style="fill:none;stroke:#000000;stroke-width:2;stroke-miterlimit:10" /></g></g><g
     id="g50"
     transform="matrix(15.618644,0,0,15.618644,0,4.2033906)"
     style="fill:#ff7043;fill-opacity:1"><path
       d="M 16,0 C 7.163,0 0,7.163 0,16 0,24.837 7.163,32 16,32 24.837,32 32,24.837 32,16 32,7.163 24.837,0 16,0 z m -3.187,24.315 c -1.101,0 -1.993,-0.892 -1.993,-1.993 0,-1.101 0.892,-1.993 1.993,-1.993 1.101,0 1.993,0.892 1.993,1.993 0,1.101 -0.892,1.993 -1.993,1.993 z m 8.132,0 c -1.101,0 -1.993,-0.892 -1.993,-1.993 0,-1.101 0.892,-1.993 1.993,-1.993 1.101,0 1.993,0.892 1.993,1.993 0,1.101 -0.892,1.993 -1.993,1.993 z m 1.28,-5.118 H 11.533 L 9.459,12.364 h 1.763 0.266 L 10.691,9.685 H 8.544 v -2 h 3.638 l 1.392,4.679 h 10.724 l -2.073,6.833 z"
       id="path52"
       inkscape:connector-curvature="0"
       style="fill:#ff7043;fill-opacity:1" /></g></svg>