<?xml version="1.0" encoding="UTF-8" standalone="no"?>
<svg
   xmlns:dc="http://purl.org/dc/elements/1.1/"
   xmlns:cc="http://creativecommons.org/ns#"
   xmlns:rdf="http://www.w3.org/1999/02/22-rdf-syntax-ns#"
   xmlns:svg="http://www.w3.org/2000/svg"
   xmlns="http://www.w3.org/2000/svg"
   xmlns:sodipodi="http://sodipodi.sourceforge.net/DTD/sodipodi-0.dtd"
   xmlns:inkscape="http://www.inkscape.org/namespaces/inkscape"
   version="1.1"
   x="0px"
   y="0px"
   viewBox="0 0 512 512"
   enable-background="new 0 0 32 32"
   xml:space="preserve"
   id="svg2"
   inkscape:version="0.48.5 r10040"
   width="100%"
   height="100%"
   sodipodi:docname="noun_361848_cc.svg"
   inkscape:export-filename="/Users/ori/Downloads/noun_361848_cc.png"
   inkscape:export-xdpi="90"
   inkscape:export-ydpi="90"><metadata
     id="metadata46"><rdf:RDF><cc:Work
         rdf:about=""><dc:format>image/svg+xml</dc:format><dc:type
           rdf:resource="http://purl.org/dc/dcmitype/StillImage" /><dc:title></dc:title></cc:Work></rdf:RDF></metadata><defs
     id="defs44" /><sodipodi:namedview
     pagecolor="#ffffff"
     bordercolor="#666666"
     borderopacity="1"
     objecttolerance="10"
     gridtolerance="10"
     guidetolerance="10"
     inkscape:pageopacity="0"
     inkscape:pageshadow="2"
     inkscape:window-width="849"
     inkscape:window-height="636"
     id="namedview42"
     showgrid="false"
     inkscape:zoom="0.7375"
     inkscape:cx="175.74576"
     inkscape:cy="250.09071"
     inkscape:window-x="0"
     inkscape:window-y="0"
     inkscape:window-maximized="0"
     inkscape:current-layer="svg2" /><g
     display="none"
     id="g4"
     style="display:none"
     transform="translate(0,472)"><rect
       x="-98.362"
       y="-129.964"
       display="inline"
       width="430.246"
       height="214.987"
       id="rect6"
       style="fill:#000000;display:inline" /></g><g
     display="none"
     id="g8"
     style="display:none"
     transform="translate(0,472)"><circle
       display="inline"
       stroke-miterlimit="10"
       cx="16"
       cy="16"
       r="15"
       id="circle10"
       sodipodi:cx="16"
       sodipodi:cy="16"
       sodipodi:rx="15"
       sodipodi:ry="15"
       style="fill:#000000;stroke:#333333;stroke-width:2;stroke-miterlimit:10;display:inline"
       d="M 31,16 C 31,24.284271 24.284271,31 16,31 7.7157288,31 1,24.284271 1,16 1,7.7157288 7.7157288,1 16,1 24.284271,1 31,7.7157288 31,16 z" /><g
       display="inline"
       id="g12"
       style="display:inline"><line
         stroke-miterlimit="10"
         x1="9.9899998"
         y1="22.01"
         x2="22.01"
         y2="9.9899998"
         id="line14"
         style="fill:#000000;stroke:#3b97d3;stroke-width:2;stroke-miterlimit:10" /><line
         stroke-miterlimit="10"
         x1="22.01"
         y1="22.01"
         x2="9.9899998"
         y2="9.9899998"
         id="line16"
         style="fill:#000000;stroke:#3b97d3;stroke-width:2;stroke-miterlimit:10" /></g></g><g
     display="none"
     id="g18"
     style="display:none"
     transform="translate(0,472)"><circle
       display="inline"
       stroke-miterlimit="10"
       cx="16"
       cy="16"
       r="15"
       id="circle20"
       sodipodi:cx="16"
       sodipodi:cy="16"
       sodipodi:rx="15"
       sodipodi:ry="15"
       style="fill:none;stroke:#000000;stroke-width:2;stroke-miterlimit:10;display:inline"
       d="M 31,16 C 31,24.284271 24.284271,31 16,31 7.7157288,31 1,24.284271 1,16 1,7.7157288 7.7157288,1 16,1 24.284271,1 31,7.7157288 31,16 z" /><g
       display="inline"
       id="g22"
       style="display:inline"><path
         d="m 14.864,24.741 v -2.035 c -1.436,-0.064 -2.828,-0.45 -3.642,-0.922 l 0.643,-2.506 c 0.899,0.492 2.164,0.942 3.557,0.942 1.221,0 2.057,-0.472 2.057,-1.328 0,-0.814 -0.686,-1.329 -2.271,-1.864 -2.293,-0.771 -3.856,-1.843 -3.856,-3.92 0,-1.886 1.329,-3.364 3.62,-3.813 V 7.259 h 2.1 v 1.885 c 1.436,0.064 2.4,0.364 3.106,0.707 l -0.621,2.421 C 19,12.037 18.015,11.543 16.472,11.543 c -1.393,0 -1.842,0.6 -1.842,1.2 0,0.706 0.75,1.156 2.57,1.842 2.55,0.9 3.578,2.078 3.578,4.007 0,1.906 -1.35,3.534 -3.813,3.963 v 2.186 h -2.101 z"
         id="path24"
         inkscape:connector-curvature="0" /></g></g><g
     display="none"
     id="g26"
     style="display:none"
     transform="translate(0,472)"><circle
       display="inline"
       stroke-miterlimit="10"
       cx="16"
       cy="16"
       r="15"
       id="circle28"
       sodipodi:cx="16"
       sodipodi:cy="16"
       sodipodi:rx="15"
       sodipodi:ry="15"
       style="fill:none;stroke:#000000;stroke-width:2;stroke-miterlimit:10;display:inline"
       d="M 31,16 C 31,24.284271 24.284271,31 16,31 7.7157288,31 1,24.284271 1,16 1,7.7157288 7.7157288,1 16,1 24.284271,1 31,7.7157288 31,16 z" /><g
       display="inline"
       id="g30"
       style="display:inline"><path
         d="m 14.864,24.741 v -2.035 c -1.436,-0.064 -2.828,-0.45 -3.642,-0.922 l 0.643,-2.506 c 0.899,0.492 2.164,0.942 3.557,0.942 1.221,0 2.057,-0.472 2.057,-1.328 0,-0.814 -0.686,-1.329 -2.271,-1.864 -2.293,-0.771 -3.856,-1.843 -3.856,-3.92 0,-1.886 1.329,-3.364 3.62,-3.813 V 7.259 h 2.1 v 1.885 c 1.436,0.064 2.4,0.364 3.106,0.707 l -0.621,2.421 C 19,12.037 18.015,11.543 16.472,11.543 c -1.393,0 -1.842,0.6 -1.842,1.2 0,0.706 0.75,1.156 2.57,1.842 2.55,0.9 3.578,2.078 3.578,4.007 0,1.906 -1.35,3.534 -3.813,3.963 v 2.186 h -2.101 z"
         id="path32"
         inkscape:connector-curvature="0" /></g></g><g
     id="g34"
     style="fill:#ff7043;fill-opacity:1"
     transform="matrix(15.279661,0,0,15.279661,12.20339,10.983051)"><path
       d="M 16,0 C 7.163,0 0,7.163 0,16 0,24.837 7.163,32 16,32 24.837,32 32,24.837 32,16 32,7.163 24.837,0 16,0 z m 0.964,22.555 v 2.186 h -2.1 v -2.035 c -1.436,-0.064 -2.828,-0.45 -3.642,-0.922 l 0.643,-2.506 c 0.899,0.492 2.164,0.942 3.557,0.942 1.221,0 2.057,-0.472 2.057,-1.328 0,-0.814 -0.686,-1.329 -2.271,-1.864 -2.293,-0.771 -3.856,-1.843 -3.856,-3.92 0,-1.886 1.329,-3.364 3.62,-3.813 V 7.259 h 2.1 v 1.885 c 1.436,0.064 2.4,0.364 3.106,0.707 l -0.621,2.421 C 19,12.037 18.015,11.543 16.472,11.543 c -1.393,0 -1.842,0.6 -1.842,1.2 0,0.706 0.75,1.156 2.57,1.842 2.55,0.9 3.578,2.078 3.578,4.007 -10e-4,1.907 -1.35,3.534 -3.814,3.963 z"
       id="path36"
       style="fill:#ff7043;fill-opacity:1"
       inkscape:connector-curvature="0" /></g></svg>